<?xml version="1.0" encoding="utf-8"?>
<!-- Generator: Adobe Illustrator 16.0.0, SVG Export Plug-In . SVG Version: 6.00 Build 0)  -->
<!DOCTYPE svg PUBLIC "-//W3C//DTD SVG 1.1//EN" "http://www.w3.org/Graphics/SVG/1.1/DTD/svg11.dtd">
<svg version="1.1" xmlns="http://www.w3.org/2000/svg" xmlns:xlink="http://www.w3.org/1999/xlink" x="0px" y="0px" width="67.75px"
	 height="67.75px" viewBox="0 0 67.75 67.75" enable-background="new 0 0 67.75 67.75" xml:space="preserve">
<g id="Layer_1">
	<g>
		<path fill="#5F8F97" d="M67.75,67.75H0V0h67.75V67.75z M6,61.75h55.75V6H6V61.75z"/>
		<g>
			<g>
				<path fill="#5F8F97" d="M23.791,39.395l-3.303,10.005H16.24l10.809-31.809h4.955l10.854,31.809H38.47l-3.398-10.005H23.791z
					 M34.222,36.186l-3.115-9.156c-0.708-2.076-1.18-3.964-1.651-5.806H29.36c-0.472,1.889-0.99,3.823-1.604,5.759l-3.115,9.203
					H34.222z"/>
				<path fill="#5F8F97" d="M44.256,50.399h-6.503l-3.398-10.005h-9.841l-3.303,10.005h-6.367l11.488-33.809h6.387L44.256,50.399z
					 M39.186,48.399h2.274L31.289,18.591h-3.523L17.636,48.399h2.129l3.303-10.005h12.72L39.186,48.399z M35.618,37.186H23.247
					l3.562-10.523c0.52-1.64,1.024-3.45,1.582-5.681l0.189-0.758h1.652l0.275,1.077c0.439,1.715,0.892,3.488,1.546,5.405
					L35.618,37.186z M26.035,35.186h6.791l-2.666-7.834c-0.283-0.83-0.528-1.628-0.751-2.404c-0.233,0.823-0.464,1.595-0.7,2.338
					L26.035,35.186z"/>
			</g>
			<g>
				<path fill="#5F8F97" d="M50.931,20.139c0.048,1.416-0.99,2.549-2.643,2.549c-1.463,0-2.501-1.133-2.501-2.549
					c0-1.462,1.086-2.596,2.596-2.596C49.94,17.543,50.931,18.677,50.931,20.139z M46.307,49.399V26.558h4.152v22.842H46.307z"/>
				<path fill="#5F8F97" d="M51.459,50.399h-6.152V25.558h6.152V50.399z M47.307,48.399h2.152V27.558h-2.152V48.399z M48.288,23.688
					c-1.963,0-3.501-1.559-3.501-3.549c0-2.05,1.546-3.596,3.596-3.596c2.056,0,3.548,1.513,3.548,3.596
					c0.032,0.924-0.301,1.814-0.938,2.473C50.322,23.306,49.362,23.688,48.288,23.688z M48.383,18.543
					c-0.939,0-1.596,0.656-1.596,1.596c0,0.897,0.631,1.549,1.501,1.549c0.534,0,0.972-0.161,1.267-0.466
					c0.26-0.27,0.39-0.632,0.376-1.049C49.931,19.169,49.323,18.543,48.383,18.543z"/>
			</g>
		</g>
	</g>
</g>
<g id="Isolation_Mode">
</g>
</svg>
