<?xml version="1.0" encoding="utf-8"?>
<!-- Generator: Adobe Illustrator 16.0.0, SVG Export Plug-In . SVG Version: 6.00 Build 0)  -->
<!DOCTYPE svg PUBLIC "-//W3C//DTD SVG 1.1//EN" "http://www.w3.org/Graphics/SVG/1.1/DTD/svg11.dtd">
<svg version="1.1" xmlns="http://www.w3.org/2000/svg" xmlns:xlink="http://www.w3.org/1999/xlink" x="0px" y="0px"
	 width="60.985px" height="67.867px" viewBox="0 0 60.985 67.867" enable-background="new 0 0 60.985 67.867" xml:space="preserve">
<g id="Layer_1">
	<path fill="#5F8F97" d="M30.409,67.867L5.396,60.913L0,0.004L60.985,0l-5.459,60.943L30.409,67.867z M11.006,56.245l19.41,5.396
		l19.506-5.377L54.424,6L6.555,6.004L11.006,56.245z"/>
	<polygon fill="#5F8F97" points="14.475,14.354 46.336,14.354 44.262,48.413 30.491,53 16.612,48.413 16.046,38.862 23.147,38.862 
		23.399,43.135 30.491,45.773 37.602,43.198 38.04,35.343 22.833,35.343 22.33,28.366 38.417,28.366 38.982,21.455 14.853,21.455 	
		"/>
</g>
<g id="Isolation_Mode">
</g>
</svg>
