<?xml version="1.0" encoding="utf-8"?>
<!-- Generator: Adobe Illustrator 16.0.0, SVG Export Plug-In . SVG Version: 6.00 Build 0)  -->
<!DOCTYPE svg PUBLIC "-//W3C//DTD SVG 1.1//EN" "http://www.w3.org/Graphics/SVG/1.1/DTD/svg11.dtd">
<svg version="1.1" xmlns="http://www.w3.org/2000/svg" xmlns:xlink="http://www.w3.org/1999/xlink" x="0px" y="0px"
	 width="69.469px" height="67.752px" viewBox="0 0 69.469 67.752" enable-background="new 0 0 69.469 67.752" xml:space="preserve">
<g id="Layer_1">
</g>
<g id="Isolation_Mode">
	<g>
		<path fill-rule="evenodd" clip-rule="evenodd" fill="#5F8F97" d="M34.735,0C15.554,0,0,15.55,0,34.732
			c0,15.347,9.952,28.366,23.754,32.961c1.736,0.321,2.374-0.755,2.374-1.673c0-0.827-0.033-3.563-0.047-6.466
			c-9.665,2.102-11.703-4.098-11.703-4.098c-1.579-4.015-3.857-5.082-3.857-5.082c-3.15-2.156,0.24-2.113,0.24-2.113
			c3.485,0.245,5.322,3.58,5.322,3.58c3.099,5.311,8.126,3.776,10.108,2.888c0.312-2.244,1.211-3.777,2.205-4.645
			c-7.716-0.879-15.826-3.858-15.826-17.166c0-3.791,1.358-6.891,3.58-9.323c-0.36-0.875-1.551-4.407,0.336-9.191
			c0,0,2.918-0.934,9.555,3.561c2.771-0.771,5.74-1.156,8.694-1.169c2.952,0.013,5.924,0.398,8.7,1.169
			c6.63-4.494,9.543-3.561,9.543-3.561c1.891,4.784,0.702,8.316,0.341,9.191c2.227,2.433,3.574,5.532,3.574,9.323
			c0,13.341-8.124,16.278-15.859,17.14c1.246,1.076,2.356,3.189,2.356,6.431c0,4.646-0.042,8.389-0.042,9.531
			c0,0.925,0.626,2.009,2.388,1.667c13.792-4.597,23.732-17.612,23.732-32.955C69.469,15.55,53.917,0,34.735,0z"/>
		<path fill="#5F8F97" d="M13.156,49.869c-0.076,0.174-0.348,0.226-0.596,0.105c-0.253-0.112-0.393-0.347-0.313-0.521
			c0.076-0.178,0.348-0.226,0.6-0.108C13.099,49.458,13.242,49.697,13.156,49.869L13.156,49.869z M12.729,49.555"/>
		<path fill="#5F8F97" d="M14.563,51.439c-0.165,0.153-0.489,0.082-0.709-0.161c-0.228-0.242-0.269-0.566-0.102-0.722
			c0.17-0.153,0.484-0.08,0.713,0.16C14.691,50.963,14.736,51.284,14.563,51.439L14.563,51.439z M14.231,51.084"/>
		<path fill="#5F8F97" d="M15.933,53.439c-0.213,0.148-0.561,0.009-0.776-0.3c-0.213-0.309-0.213-0.679,0.006-0.828
			c0.214-0.147,0.558-0.014,0.776,0.292C16.15,52.918,16.15,53.288,15.933,53.439L15.933,53.439z M15.933,53.439"/>
		<path fill="#5F8F97" d="M17.809,55.372c-0.189,0.211-0.596,0.152-0.893-0.133c-0.304-0.28-0.389-0.679-0.197-0.889
			c0.192-0.209,0.602-0.15,0.9,0.135C17.919,54.765,18.012,55.165,17.809,55.372L17.809,55.372z M17.809,55.372"/>
		<path fill="#5F8F97" d="M20.397,56.494c-0.085,0.272-0.475,0.396-0.867,0.28c-0.394-0.119-0.652-0.438-0.571-0.712
			c0.08-0.275,0.474-0.403,0.869-0.28C20.222,55.901,20.479,56.217,20.397,56.494L20.397,56.494z M20.397,56.494"/>
		<path fill="#5F8F97" d="M23.24,56.703c0.009,0.286-0.324,0.523-0.737,0.529c-0.416,0.009-0.751-0.223-0.756-0.505
			c0-0.29,0.325-0.525,0.741-0.531C22.9,56.188,23.24,56.418,23.24,56.703L23.24,56.703z M23.24,56.703"/>
		<path fill="#5F8F97" d="M25.885,56.252c0.049,0.279-0.236,0.565-0.646,0.642c-0.405,0.075-0.777-0.098-0.829-0.374
			c-0.05-0.286,0.241-0.574,0.646-0.647C25.464,55.801,25.833,55.967,25.885,56.252L25.885,56.252z M25.885,56.252"/>
	</g>
</g>
</svg>
