<?xml version="1.0" encoding="utf-8"?>
<!-- Generator: Adobe Illustrator 16.0.0, SVG Export Plug-In . SVG Version: 6.00 Build 0)  -->
<!DOCTYPE svg PUBLIC "-//W3C//DTD SVG 1.1//EN" "http://www.w3.org/Graphics/SVG/1.1/DTD/svg11.dtd">
<svg version="1.1" xmlns="http://www.w3.org/2000/svg" xmlns:xlink="http://www.w3.org/1999/xlink" x="0px" y="0px"
	 width="60.987px" height="67.869px" viewBox="0 0 60.987 67.869" enable-background="new 0 0 60.987 67.869" xml:space="preserve">
<g id="Layer_1">
	<path fill="#5F8F97" d="M30.41,67.869L5.396,60.916L0,0.004L60.987,0l-5.459,60.943L30.41,67.869z M11.006,56.248l19.411,5.395
		l19.507-5.377L54.426,6L6.555,6.004L11.006,56.248z"/>
	<polygon fill="#5F8F97" points="13.332,14.355 47.483,14.355 46.879,21.172 20.802,21.172 21.4,28.101 46.265,28.101 
		44.395,49.218 30.407,53.002 16.419,49.218 15.457,38.357 22.296,38.357 22.745,43.789 30.407,45.881 38.034,43.789 38.681,34.974 
		15.161,34.974 	"/>
</g>
<g id="Isolation_Mode">
</g>
</svg>
