<?xml version="1.0" encoding="utf-8"?>
<!-- Generator: Adobe Illustrator 16.0.0, SVG Export Plug-In . SVG Version: 6.00 Build 0)  -->
<!DOCTYPE svg PUBLIC "-//W3C//DTD SVG 1.1//EN" "http://www.w3.org/Graphics/SVG/1.1/DTD/svg11.dtd">
<svg version="1.1" xmlns="http://www.w3.org/2000/svg" xmlns:xlink="http://www.w3.org/1999/xlink" x="0px" y="0px" width="67.75px"
	 height="67.75px" viewBox="0 0 67.75 67.75" enable-background="new 0 0 67.75 67.75" xml:space="preserve">
<g id="Layer_1">
	<g>
		<path fill="#5F8F97" d="M67.75,67.75H0V0h67.75V67.75z M6,61.75h55.75V6H6V61.75z"/>
		<g>
			<g>
				<path fill="#5F8F97" d="M23.382,19.359v30.089h-3.886V19.359H23.382z"/>
				<path fill="#5F8F97" d="M24.382,50.448h-5.886V18.359h5.886V50.448z M20.496,48.448h1.886V20.359h-1.886V48.448z"/>
			</g>
			<g>
				<path fill="#5F8F97" d="M48.695,17.75v26.117c0,1.92,0.044,4.106,0.181,5.581h-3.528l-0.179-3.751H45.08
					c-1.207,2.41-3.839,4.241-7.366,4.241c-5.225,0-9.242-4.42-9.242-10.982c-0.045-7.188,4.42-11.609,9.688-11.609
					c3.305,0,5.536,1.564,6.518,3.305h0.09V17.75H48.695z M44.768,36.635c0-0.491-0.046-1.162-0.179-1.653
					c-0.582-2.498-2.725-4.553-5.669-4.553c-4.063,0-6.475,3.571-6.475,8.348c0,4.376,2.142,7.993,6.385,7.993
					c2.635,0,5.043-1.742,5.759-4.689c0.133-0.535,0.179-1.07,0.179-1.695V36.635z"/>
				<path fill="#5F8F97" d="M37.714,50.938c-5.935,0-10.242-5.039-10.242-11.982c-0.024-3.886,1.23-7.305,3.533-9.622
					c1.914-1.927,4.455-2.987,7.155-2.987c2.188,0,4.146,0.635,5.607,1.767V16.75h5.928v27.117c0,2.313,0.063,4.262,0.177,5.488
					l0.101,1.093h-5.578l-0.098-2.037C42.626,50.011,40.283,50.938,37.714,50.938z M38.16,28.347c-2.163,0-4.2,0.852-5.736,2.396
					c-1.925,1.937-2.973,4.852-2.952,8.207c0,5.79,3.467,9.988,8.242,9.988c2.896,0,5.315-1.379,6.472-3.689l0.106-0.211
					c-1.273,1.7-3.243,2.731-5.462,2.731c-4.417,0-7.385-3.614-7.385-8.993c0-5.591,3.004-9.348,7.475-9.348
					c3.181,0,5.912,2.19,6.643,5.326c0.185,0.678,0.205,1.542,0.205,1.88v3.75c0,0.759-0.064,1.356-0.208,1.937
					c-0.213,0.876-0.564,1.676-1.027,2.376h1.501l0.135,0.952l0.133,2.799h1.5c-0.09-1.596-0.105-3.475-0.105-4.581V18.75h-1.928
					v12.901h-1.584l-0.377-0.509C43.044,29.791,41.161,28.347,38.16,28.347z M38.92,31.429c-3.326,0-5.475,2.884-5.475,7.348
					c0,3.381,1.415,6.993,5.385,6.993c2.293,0,4.217-1.577,4.787-3.926c0.104-0.421,0.15-0.869,0.15-1.459v-3.75
					c0-0.522-0.057-1.068-0.145-1.393C43.177,33.327,41.555,31.429,38.92,31.429z"/>
			</g>
		</g>
	</g>
</g>
<g id="Isolation_Mode">
</g>
</svg>
