<?xml version="1.0" encoding="utf-8"?>
<!-- Generator: Adobe Illustrator 16.0.0, SVG Export Plug-In . SVG Version: 6.00 Build 0)  -->
<!DOCTYPE svg PUBLIC "-//W3C//DTD SVG 1.1//EN" "http://www.w3.org/Graphics/SVG/1.1/DTD/svg11.dtd">
<svg version="1.1" xmlns="http://www.w3.org/2000/svg" xmlns:xlink="http://www.w3.org/1999/xlink" x="0px" y="0px"
	 width="67.752px" height="67.752px" viewBox="0 0 67.752 67.752" enable-background="new 0 0 67.752 67.752" xml:space="preserve">
<g id="Layer_1">
</g>
<g id="Isolation_Mode">
	<g>
		<path fill="#5F8F97" d="M67.752,67.752H0V0h67.752V67.752z M6,61.752h55.752V6H6V61.752z"/>
		<g>
			<path fill="#5F8F97" d="M22.844,17.791h7.405v20.753c0,9.354-4.481,12.617-11.644,12.617c-1.752,0-3.994-0.292-5.455-0.779
				l0.828-5.992c1.022,0.343,2.338,0.585,3.799,0.585c3.118,0,5.066-1.412,5.066-6.479V17.791z"/>
			<path fill="#5F8F97" d="M33.175,43.027c1.948,1.022,5.066,2.045,8.232,2.045c3.41,0,5.213-1.413,5.213-3.604
				c0-1.997-1.559-3.215-5.504-4.58c-5.457-1.948-9.061-4.968-9.061-9.791c0-5.602,4.725-9.84,12.421-9.84
				c3.752,0,6.431,0.729,8.379,1.655l-1.656,5.943c-1.267-0.634-3.652-1.56-6.821-1.56c-3.213,0-4.773,1.512-4.773,3.168
				c0,2.094,1.803,3.02,6.09,4.676c5.797,2.143,8.477,5.165,8.477,9.841c0,5.505-4.19,10.181-13.201,10.181
				c-3.751,0-7.454-1.022-9.305-2.047L33.175,43.027z"/>
		</g>
	</g>
</g>
</svg>
