<?xml version="1.0" encoding="utf-8"?>
<!-- Generator: Adobe Illustrator 16.0.0, SVG Export Plug-In . SVG Version: 6.00 Build 0)  -->
<!DOCTYPE svg PUBLIC "-//W3C//DTD SVG 1.1//EN" "http://www.w3.org/Graphics/SVG/1.1/DTD/svg11.dtd">
<svg version="1.1" xmlns="http://www.w3.org/2000/svg" xmlns:xlink="http://www.w3.org/1999/xlink" x="0px" y="0px"
	 width="145.537px" height="75px" viewBox="0 0 145.537 75" enable-background="new 0 0 145.537 75" xml:space="preserve">
<g id="Layer_1" display="none">
</g>
<g id="Layer_3" display="none">
</g>
<g id="logo1">
</g>
<g id="logo2">
</g>
<g id="logo_with_box">
	<g>
		<path fill="#532cbf" d="M67.283,73.5H15.41c-0.043,0-0.087-0.001-0.131-0.001C10.161,73.298,1.5,70.933,1.5,63.333
			c0-8.54,11.174-12.135,12.782-12.607l30.451-10.129c0.211-0.07,0.313-0.103,0.524-0.13c0.897-0.181,1.946-0.749,1.946-2.407
			c0-1.842-1.289-2.442-2.082-2.638c-0.162-0.025-0.223-0.05-0.389-0.104L14.284,25.186C12.675,24.713,1.5,21.121,1.5,12.58
			c0-7.599,8.661-9.965,13.779-10.166c0.044-0.001,0.088-0.003,0.131-0.003h48.319c1.839,0,3.331,1.492,3.331,3.331
			c0,1.84-1.492,3.332-3.331,3.332H15.487c-1.541,0.081-7.326,0.921-7.326,3.506c0,2.899,5.522,5.488,8.041,6.226
			c0.039,0.011,0.086,0.026,0.125,0.038l30.342,10.098c2.625,0.612,7.198,3.205,7.198,9.118c0,5.95-4.57,8.394-7.255,8.934
			L16.326,57.068c-0.044,0.014-0.088,0.027-0.131,0.04c-2.512,0.734-8.034,3.325-8.034,6.225c0,2.582,5.771,3.421,7.329,3.504
			h51.793c2.018,0,3.497-0.477,4.399-1.417c1.352-1.409,1.274-3.624,1.273-3.646c-0.005-0.072-0.005-0.107-0.005-0.18V13.771
			c0-0.05,0-0.103,0.003-0.153C73.148,9.427,75.521,1.5,83.114,1.5c8.392,0,12.15,9.869,12.551,10.992l10.125,25.721
			c0.103,0.26,0.143,0.328,0.175,0.582c0.18,0.616,0.752,1.322,2.424,1.322c1.872,0,2.474-0.903,2.668-1.479
			c0.033-0.191,0.058-0.221,0.138-0.425l10.129-25.721c0.402-1.127,4.158-10.992,12.548-10.992c7.594,0,9.97,7.926,10.163,12.116
			c0.003,0.052,0.003,0.103,0.003,0.154v56.377c0,1.841-1.49,3.331-3.33,3.331c-1.841,0-3.331-1.49-3.331-3.331V13.879
			c-0.047-0.548-0.556-5.716-3.505-5.716c-3.864,0-6.249,6.501-6.271,6.565c-0.017,0.051-0.035,0.099-0.055,0.147l-10.081,25.603
			c-0.673,2.334-3.295,6.3-9.075,6.3c-5.808,0-8.285-3.96-8.89-6.363L89.444,14.876c-0.021-0.049-0.038-0.097-0.056-0.146
			c-0.59-1.696-3.019-6.567-6.274-6.567c-2.937,0-3.452,5.126-3.502,5.721v47.628c0.038,0.926,0.027,5.158-3.037,8.431
			C74.364,72.304,71.238,73.5,67.283,73.5z"/>
		<path fill="#532cbf" d="M67.283,75l-52.063-0.002C9.567,74.775,0,72.068,0,63.333c0-9.493,11.545-13.366,13.859-14.047
			l30.4-10.112c0.25-0.084,0.441-0.143,0.743-0.187c0.536-0.116,0.701-0.339,0.701-0.928c0-0.558-0.153-0.971-0.891-1.168
			c-0.194-0.034-0.304-0.067-0.495-0.132L13.811,26.608C11.547,25.945,0,22.073,0,12.58C0,3.845,9.567,1.138,15.221,0.915
			l0.189-0.004h48.319c2.664,0,4.831,2.167,4.831,4.831s-2.167,4.832-4.831,4.832H15.487c-2.57,0.138-5.826,1.244-5.826,2.006
			c0,1.479,3.828,3.868,6.963,4.786l0.106,0.032l30.35,10.099c3.112,0.754,8.287,3.802,8.287,10.563
			c0,6.801-5.212,9.714-8.364,10.385L16.62,58.547c-3.135,0.917-6.959,3.305-6.959,4.786c0,0.759,3.258,1.865,5.909,2.006
			l51.713-0.002c1.57,0,2.717-0.33,3.317-0.955c0.736-0.769,0.868-2.108,0.856-2.56c-0.005-0.061-0.006-0.115-0.006-0.229V13.771
			c0-0.078,0.001-0.16,0.006-0.239C71.673,8.862,74.39,0,83.114,0c9.418,0,13.526,10.762,13.964,11.988l10.146,25.77
			c0.084,0.209,0.151,0.388,0.199,0.649c0.084,0.107,0.428,0.21,0.966,0.21c0.388,0,1.045-0.054,1.224-0.403
			c0.042-0.188,0.092-0.317,0.149-0.458l0.037-0.093l10.129-25.721C120.349,10.761,124.462,0,133.871,0
			c8.729,0,11.445,8.861,11.661,13.547c0.004,0.064,0.005,0.144,0.005,0.224v56.377c0,2.664-2.167,4.831-4.83,4.831
			c-2.664,0-4.831-2.167-4.831-4.831V13.945c-0.162-1.75-0.9-4.282-2.005-4.282c-2.136,0-4.197,3.755-4.86,5.573
			c-0.013,0.04-0.041,0.118-0.073,0.196l-10.054,25.533c-0.823,2.751-3.932,7.313-10.495,7.313c-6.599,0-9.573-4.603-10.318-7.398
			L88.049,15.426c-0.019-0.042-0.045-0.114-0.071-0.188c-0.659-1.894-2.822-5.575-4.863-5.575c-1.108,0-1.844,2.535-2.002,4.286
			v47.563c0.053,1.251-0.036,5.818-3.442,9.456C75.165,73.644,71.67,75,67.283,75z M15.41,3.911C14.834,3.933,3,4.491,3,12.58
			c0,7.512,10.509,10.814,11.707,11.166l30.773,10.22c2.019,0.497,3.224,2.027,3.224,4.094c0,2.031-1.178,3.48-3.15,3.878
			l-0.104,0.017c-0.099,0.013-0.145,0.033-0.242,0.065L14.756,52.148C13.507,52.517,3,55.821,3,63.333
			C3,71.422,14.834,71.98,15.338,72h51.945c3.523,0,6.281-1.037,8.197-3.083c2.676-2.857,2.663-6.619,2.633-7.344l-0.001-47.752
			l0.005-0.063c0.288-3.431,1.751-7.096,4.997-7.096c4.999,0,7.665,7.499,7.691,7.574l10.148,25.812
			c0.134,0.535,1.486,5.229,7.435,5.229c5.958,0,7.48-4.682,7.634-5.215l0.046-0.135l10.081-25.603
			c0.061-0.167,2.729-7.663,7.722-7.663c3.239,0,4.706,3.661,4.999,7.088l0.006,0.128v56.269c0,1.01,0.821,1.831,1.831,1.831
			c1.009,0,1.83-0.821,1.83-1.831V13.771C142.365,9.989,140.335,3,133.871,3c-7.354,0-10.77,8.974-11.135,9.996l-10.259,26.121
			c-0.253,0.752-1.159,2.5-4.089,2.5c-2.855,0-3.653-1.68-3.864-2.402l-0.13-0.451L94.27,13.042C93.888,11.973,90.476,3,83.114,3
			c-6.459,0-8.49,6.99-8.662,10.687l-0.001,47.907l0.004,0.114c0.005,0.117,0.104,2.88-1.689,4.75
			c-1.196,1.247-3.041,1.879-5.482,1.879H15.49c-0.438-0.021-8.829-0.52-8.829-5.004c0-4.864,9.022-7.638,9.113-7.664l0.105-0.033
			l30.437-10.113c0.619-0.124,6.051-1.393,6.051-7.463c0-4.933-3.796-7.134-6.039-7.657l-0.133-0.038L15.854,20.267
			c-0.164-0.048-9.192-2.827-9.192-7.687c0-4.492,8.66-4.999,8.747-5.004l48.321-0.002c1.01,0,1.831-0.822,1.831-1.832
			s-0.821-1.831-1.831-1.831H15.41z"/>
	</g>
</g>
</svg>
