<?xml version="1.0" encoding="utf-8"?>
<!-- Generator: Adobe Illustrator 16.0.0, SVG Export Plug-In . SVG Version: 6.00 Build 0)  -->
<!DOCTYPE svg PUBLIC "-//W3C//DTD SVG 1.1//EN" "http://www.w3.org/Graphics/SVG/1.1/DTD/svg11.dtd">
<svg version="1.1" id="Layer_1" xmlns="http://www.w3.org/2000/svg" xmlns:xlink="http://www.w3.org/1999/xlink" x="0px" y="0px"
	 width="67.75px" height="67.75px" viewBox="0 0 67.75 67.75" enable-background="new 0 0 67.75 67.75" xml:space="preserve">
<path fill="#5F8F97" d="M67.751,67.751H-0.001V-0.001h67.752V67.751z M5.999,61.751h55.752V5.999H5.999V61.751z"/>
<g>
	<path fill="#5F8F97" stroke="#5F8F97" stroke-width="2" stroke-miterlimit="10" d="M15.916,17.446
		c2.086-0.348,4.816-0.646,8.292-0.646c4.271,0,7.398,0.993,9.384,2.78c1.838,1.589,2.93,4.022,2.93,7.001
		c0,3.029-0.894,5.412-2.582,7.15c-2.283,2.433-6.008,3.674-10.228,3.674c-1.291,0-2.483-0.05-3.476-0.298v13.406h-4.32V17.446z
		 M20.236,33.583c0.943,0.249,2.135,0.348,3.574,0.348c5.214,0,8.392-2.532,8.392-7.149c0-4.419-3.128-6.555-7.895-6.555
		c-1.887,0-3.327,0.149-4.071,0.348V33.583z"/>
	<path fill="#5F8F97" stroke="#5F8F97" stroke-width="2" stroke-miterlimit="10" d="M41.388,33.98c0-2.83-0.05-5.263-0.199-7.497
		h3.823l0.149,4.717h0.198c1.093-3.228,3.724-5.264,6.653-5.264c0.497,0,0.845,0.05,1.241,0.149v4.121
		c-0.446-0.1-0.894-0.149-1.489-0.149c-3.078,0-5.263,2.334-5.859,5.611c-0.099,0.596-0.198,1.291-0.198,2.035v12.811h-4.319V33.98z
		"/>
</g>
</svg>
