<?xml version="1.0" encoding="utf-8"?>
<!-- Generator: Adobe Illustrator 16.0.0, SVG Export Plug-In . SVG Version: 6.00 Build 0)  -->
<!DOCTYPE svg PUBLIC "-//W3C//DTD SVG 1.1//EN" "http://www.w3.org/Graphics/SVG/1.1/DTD/svg11.dtd">
<svg version="1.1" xmlns="http://www.w3.org/2000/svg" xmlns:xlink="http://www.w3.org/1999/xlink" x="0px" y="0px" width="67.75px"
	 height="67.75px" viewBox="0 0 67.75 67.75" enable-background="new 0 0 67.75 67.75" xml:space="preserve">
<g id="Layer_1">
	<g>
		<path fill="#5F8F97" d="M67.751,67.751H-0.001V-0.001h67.752V67.751z M5.999,61.751h55.752V5.999H5.999V61.751z"/>
		<g>
			<g>
				<path fill="#5F8F97" d="M16.319,18.188c1.975-0.329,4.559-0.61,7.847-0.61c4.041,0,7.001,0.939,8.88,2.631
					c1.739,1.503,2.772,3.806,2.772,6.624c0,2.866-0.846,5.121-2.443,6.766c-2.161,2.302-5.685,3.477-9.678,3.477
					c-1.223,0-2.35-0.047-3.289-0.282v12.686h-4.089V18.188z M20.408,33.458c0.893,0.234,2.02,0.328,3.383,0.328
					c4.933,0,7.939-2.396,7.939-6.765c0-4.182-2.959-6.202-7.47-6.202c-1.786,0-3.147,0.142-3.853,0.329V33.458z"/>
				<path fill="#5F8F97" d="M21.408,50.479h-6.089V17.342l0.836-0.141c2.483-0.414,5.179-0.624,8.011-0.624
					c4.208,0,7.421,0.973,9.549,2.889c1.996,1.725,3.104,4.346,3.104,7.367c0,3.09-0.917,5.601-2.727,7.463
					c-2.284,2.433-5.979,3.779-10.395,3.779c-0.757,0-1.538-0.016-2.289-0.098V50.479z M17.32,48.479h2.088V35.512l1.243,0.312
					c0.887,0.222,2.037,0.252,3.046,0.252c3.856,0,7.035-1.123,8.948-3.161c1.446-1.488,2.173-3.53,2.173-6.081
					c0-2.432-0.861-4.516-2.427-5.867c-1.765-1.589-4.527-2.388-8.226-2.388c-2.406,0-4.705,0.157-6.846,0.467V48.479z
					 M23.791,34.786c-1.543,0-2.699-0.114-3.637-0.361l-0.746-0.195V20.38l0.743-0.198c0.866-0.23,2.364-0.362,4.109-0.362
					c5.304,0,8.47,2.692,8.47,7.202C32.73,31.884,29.389,34.786,23.791,34.786z M21.408,32.641c0.647,0.098,1.435,0.146,2.383,0.146
					c2.592,0,6.939-0.749,6.939-5.765c0-4.3-3.519-5.202-6.47-5.202c-1.234,0-2.193,0.069-2.853,0.158V32.641z"/>
			</g>
			<g>
				<path fill="#5F8F97" d="M38.698,45.25c1.222,0.799,3.383,1.645,5.45,1.645c3.007,0,4.416-1.504,4.416-3.383
					c0-1.973-1.175-3.054-4.229-4.182c-4.087-1.456-6.013-3.711-6.013-6.437c0-3.664,2.959-6.671,7.846-6.671
					c2.302,0,4.323,0.657,5.592,1.409l-1.034,3.007c-0.894-0.563-2.538-1.315-4.652-1.315c-2.442,0-3.806,1.409-3.806,3.101
					c0,1.88,1.363,2.726,4.323,3.853c3.947,1.504,5.967,3.477,5.967,6.859c0,3.994-3.102,6.813-8.504,6.813
					c-2.49,0-4.792-0.61-6.39-1.551L38.698,45.25z"/>
				<path fill="#5F8F97" d="M44.055,50.949c-2.56,0-5.073-0.615-6.896-1.69l-0.694-0.408l1.69-5.15l1.091,0.713
					c1.128,0.737,3.081,1.481,4.903,1.481c2.171,0,3.416-0.868,3.416-2.383c0-1.275-0.553-2.127-3.575-3.243
					c-5.508-1.963-6.666-5.094-6.666-7.375c0-4.444,3.72-7.671,8.846-7.671c2.184,0,4.466,0.579,6.102,1.549l0.701,0.415
					l-1.711,4.973l-1.069-0.675c-0.553-0.35-2.061-1.161-4.117-1.161c-1.704,0-2.806,0.824-2.806,2.101
					c0,1.07,0.511,1.712,3.679,2.918c3.078,1.173,6.611,3.118,6.611,7.794C53.559,47.882,49.827,50.949,44.055,50.949z
					 M38.879,47.904c1.447,0.669,3.286,1.044,5.176,1.044c4.628,0,7.504-2.228,7.504-5.813c0-2.768-1.543-4.484-5.323-5.925
					c-2.813-1.071-4.967-2.104-4.967-4.787c0-2.414,1.977-4.101,4.806-4.101c1.703,0,3.098,0.433,4.087,0.881l0.374-1.083
					c-1.259-0.569-2.833-0.898-4.366-0.898c-4.03,0-6.846,2.332-6.846,5.671c0,2.382,1.8,4.23,5.349,5.494
					c2.941,1.087,4.893,2.371,4.893,5.124c0,2.021-1.418,4.383-5.416,4.383c-1.799,0-3.568-0.554-4.878-1.183L38.879,47.904z"/>
			</g>
		</g>
	</g>
</g>
<g id="Isolation_Mode">
</g>
</svg>
