<?xml version="1.0" encoding="utf-8"?>
<!-- Generator: Adobe Illustrator 16.0.0, SVG Export Plug-In . SVG Version: 6.00 Build 0)  -->
<!DOCTYPE svg PUBLIC "-//W3C//DTD SVG 1.1//EN" "http://www.w3.org/Graphics/SVG/1.1/DTD/svg11.dtd">
<svg version="1.1" xmlns="http://www.w3.org/2000/svg" xmlns:xlink="http://www.w3.org/1999/xlink" x="0px" y="0px"
	 width="76.144px" height="67.752px" viewBox="0 0 76.144 67.752" enable-background="new 0 0 76.144 67.752" xml:space="preserve">
<g id="Layer_1">
</g>
<g id="Isolation_Mode">
	<g>
		<circle fill="#5F8F97" cx="38.086" cy="33.801" r="6.804"/>
		<g>
			<path fill="#5F8F97" d="M38.086,49.387c-9.556,0-17.904-1.125-24.152-3.267c-4.053-1.382-7.495-3.226-9.948-5.326
				C1.383,38.571,0,36.146,0,33.801c0-4.5,4.934-8.905,13.215-11.778c6.777-2.358,15.613-3.673,24.857-3.673
				c9.08,0,17.795,1.273,24.531,3.605c3.944,1.354,7.265,3.117,9.623,5.068c2.562,2.142,3.917,4.486,3.917,6.777
				c0,4.676-5.517,9.405-14.407,12.347C55.447,48.234,47.044,49.387,38.086,49.387z M38.086,21.603
				c-8.77,0-17.443,1.273-23.787,3.482c-7.616,2.657-11.032,6.289-11.032,8.716c0,2.521,3.673,6.491,11.724,9.243
				c5.909,2.02,13.906,3.09,23.096,3.09c8.619,0,16.657-1.084,22.634-3.076c8.362-2.778,12.185-6.75,12.185-9.257
				c0-1.288-0.976-2.806-2.751-4.283c-2.047-1.708-5.028-3.267-8.593-4.5C55.149,22.822,46.814,21.603,38.086,21.603z"/>
		</g>
		<g>
			<path fill="#5F8F97" d="M22.648,67.711c-1.383,0-2.603-0.298-3.633-0.895c-3.89-2.25-5.245-8.729-3.605-17.335
				c1.342-7.061,4.622-15.355,9.244-23.366c4.54-7.86,9.988-14.772,15.369-19.449c3.145-2.737,6.33-4.743,9.203-5.801
				c3.131-1.151,5.842-1.151,7.82-0.014c4.053,2.331,5.395,9.487,3.497,18.65c-1.342,6.505-4.541,14.353-9.014,22.119
				c-4.771,8.268-9.921,14.936-14.895,19.286c-3.227,2.819-6.547,4.879-9.583,5.95C25.468,67.427,23.977,67.711,22.648,67.711z
				 M26.05,26.929l1.41,0.813c-4.378,7.59-7.617,15.735-8.864,22.35c-1.505,7.929-0.055,12.699,2.033,13.905
				c0.515,0.299,1.192,0.461,2.02,0.461c2.697,0,6.939-1.707,11.846-5.99c4.703-4.106,9.623-10.504,14.218-18.46
				c4.31-7.468,7.373-14.977,8.646-21.144c1.775-8.633,0.244-13.919-1.938-15.18c-1.112-0.637-2.914-0.556-5.083,0.244
				c-2.508,0.922-5.34,2.724-8.187,5.204c-5.109,4.445-10.327,11.06-14.691,18.623L26.05,26.929z"/>
		</g>
		<g>
			<path fill="#5F8F97" d="M53.523,67.752c-3.688,0-8.363-2.223-13.242-6.425c-5.448-4.689-10.992-11.669-15.627-19.68l0,0
				c-4.554-7.86-7.807-16.033-9.176-23.041c-0.8-4.093-0.949-7.847-0.434-10.869c0.569-3.294,1.911-5.639,3.903-6.791
				c4.039-2.344,10.91,0.068,17.904,6.289c4.96,4.405,10.165,11.101,14.651,18.854c4.784,8.268,7.996,16.061,9.271,22.539
				c0.826,4.201,0.962,8.104,0.379,11.276c-0.623,3.375-2.033,5.773-4.065,6.953C56.071,67.454,54.865,67.752,53.523,67.752z
				 M27.474,40.021c4.391,7.59,9.84,14.462,14.936,18.839c6.112,5.259,10.965,6.397,13.065,5.178
				c2.182-1.261,3.781-6.424,2.128-14.773c-1.22-6.126-4.297-13.58-8.904-21.536C44.374,20.261,39.4,13.85,34.697,9.675
				C28.11,3.82,22.771,2.506,20.588,3.766c-1.111,0.638-1.938,2.25-2.331,4.527c-0.447,2.629-0.312,5.99,0.42,9.69
				C19.979,24.639,23.096,32.459,27.474,40.021L27.474,40.021z"/>
		</g>
	</g>
</g>
</svg>
