<?xml version="1.0" encoding="utf-8"?>
<!-- Generator: Adobe Illustrator 16.0.0, SVG Export Plug-In . SVG Version: 6.00 Build 0)  -->
<!DOCTYPE svg PUBLIC "-//W3C//DTD SVG 1.1//EN" "http://www.w3.org/Graphics/SVG/1.1/DTD/svg11.dtd">
<svg version="1.1" xmlns="http://www.w3.org/2000/svg" xmlns:xlink="http://www.w3.org/1999/xlink" x="0px" y="0px"
	 width="67.752px" height="67.752px" viewBox="0 0 67.752 67.752" enable-background="new 0 0 67.752 67.752" xml:space="preserve">
<g id="Layer_1">
</g>
<g id="Isolation_Mode">
	<g id="_49-Responsive">
		<path fill="#5F8F97" stroke="#5F8F97" stroke-width="2" stroke-miterlimit="10" d="M62.558,1.192H5.194
			c-2.264,0-4.098,1.833-4.098,4.098v43.707c0,2.261,1.834,4.097,4.098,4.097h17.754v5.848l-3.169,1.05
			c-0.555,0.188-0.929,0.708-0.928,1.298v2.73h-2.729v2.732h23.217V64.02H21.583v-1.748l2.951-0.982h14.805v-2.731H25.682v-5.464
			h13.657v-2.731H5.194c-0.755,0-1.365-0.611-1.365-1.365v-8.194h35.51V38.07H3.829V5.29c0-0.756,0.61-1.365,1.365-1.365h57.363
			c0.755,0,1.365,0.609,1.365,1.365v20.488h2.733V5.29C66.656,3.025,64.821,1.192,62.558,1.192z"/>
		<path fill="#5F8F97" stroke="#5F8F97" stroke-width="2" stroke-miterlimit="10" d="M63.923,28.51h-19.12
			c-1.511,0-2.731,1.222-2.731,2.729v32.78c0,1.509,1.221,2.732,2.731,2.732h19.12c1.51,0,2.733-1.224,2.733-2.732v-32.78
			C66.656,29.731,65.433,28.51,63.923,28.51z M63.923,64.02h-19.12v-4.098h19.12V64.02z M63.923,57.191h-19.12V38.07h19.12V57.191z
			 M63.923,35.338h-19.12v-4.099h19.12V35.338z"/>
	</g>
</g>
</svg>
