<?xml version="1.0" encoding="utf-8"?>
<!-- Generator: Adobe Illustrator 16.0.0, SVG Export Plug-In . SVG Version: 6.00 Build 0)  -->
<!DOCTYPE svg PUBLIC "-//W3C//DTD SVG 1.1//EN" "http://www.w3.org/Graphics/SVG/1.1/DTD/svg11.dtd">
<svg version="1.1" xmlns="http://www.w3.org/2000/svg" xmlns:xlink="http://www.w3.org/1999/xlink" x="0px" y="0px"
	 width="90.353px" height="67.752px" viewBox="0 0 90.353 67.752" enable-background="new 0 0 90.353 67.752" xml:space="preserve">
<g id="Layer_1">
</g>
<g id="Isolation_Mode">
	<g id="_x32_88-sass">
		<g>
			<g>
				<path fill="#5F8F97" d="M77.784,38.941c-3.161,0.015-5.899,0.776-8.186,1.906c-0.833-1.681-1.694-3.148-1.835-4.249
					c-0.169-1.284-0.353-2.047-0.155-3.57c0.198-1.525,1.087-3.685,1.073-3.839c-0.015-0.155-0.198-0.933-2.019-0.946
					s-3.387,0.353-3.571,0.833c-0.184,0.479-0.536,1.566-0.748,2.695c-0.324,1.651-3.642,7.551-5.519,10.628
					c-0.621-1.199-1.143-2.258-1.256-3.104c-0.17-1.285-0.353-2.047-0.155-3.571s1.087-3.685,1.072-3.839
					c-0.014-0.155-0.197-0.932-2.018-0.946c-1.821-0.014-3.388,0.354-3.571,0.833s-0.381,1.609-0.748,2.696
					c-0.366,1.086-4.784,10.909-5.941,13.465c-0.594,1.298-1.102,2.343-1.469,3.048c-0.056,0.113-0.099,0.184-0.126,0.24
					c0.042-0.07,0.07-0.142,0.07-0.112c-0.311,0.606-0.494,0.945-0.494,0.945v0.014c-0.24,0.451-0.508,0.86-0.635,0.86
					c-0.085,0-0.269-1.185,0.042-2.808c0.663-3.416,2.229-8.723,2.216-8.906c-0.015-0.099,0.296-1.016-1.03-1.51
					c-1.284-0.466-1.75,0.311-1.863,0.311c-0.112,0-0.197,0.282-0.197,0.282s1.426-5.984-2.738-5.984
					c-2.597,0-6.21,2.851-7.988,5.435c-1.115,0.606-3.528,1.919-6.068,3.316c-0.975,0.536-1.977,1.086-2.922,1.608
					c-0.07-0.07-0.127-0.142-0.198-0.212C15.754,39.069,6.425,35.258,6.82,28.018c0.142-2.64,1.059-9.569,17.938-17.981
					c13.832-6.887,24.896-4.996,26.803-0.79c2.737,5.999-5.914,17.163-20.282,18.771c-5.476,0.606-8.354-1.51-9.075-2.301
					c-0.748-0.832-0.86-0.875-1.143-0.72c-0.467,0.254-0.17,0.988,0,1.426c0.423,1.114,2.188,3.091,5.193,4.079
					c2.639,0.86,9.062,1.341,16.823-1.666C51.801,25.477,58.59,16.119,56.6,8.287C54.567,0.326,41.371-2.284,28.881,2.146
					C21.442,4.786,13.397,8.936,7.61,14.341C0.737,20.777-0.363,26.38,0.088,28.724c1.609,8.313,13.069,13.732,17.656,17.74
					c-0.226,0.128-0.438,0.24-0.635,0.354C14.809,47.96,6.072,52.533,3.885,57.36c-2.47,5.477,0.409,9.399,2.301,9.937
					c5.899,1.637,11.939-1.313,15.187-6.154c3.245-4.841,2.851-11.164,1.354-14.043c-0.015-0.042-0.043-0.07-0.057-0.113
					c0.593-0.353,1.199-0.705,1.807-1.058c1.172-0.692,2.314-1.327,3.316-1.878c-0.564,1.525-0.974,3.359-1.186,6.013
					c-0.254,3.104,1.031,7.128,2.696,8.708c0.733,0.691,1.623,0.706,2.173,0.706c1.948,0,2.823-1.609,3.797-3.528
					c1.199-2.344,2.259-5.067,2.259-5.067s-1.327,7.368,2.3,7.368c1.327,0,2.654-1.708,3.246-2.583v0.014
					c0,0,0.028-0.057,0.099-0.169c0.142-0.212,0.212-0.339,0.212-0.339V55.13c0.536-0.917,1.708-3.021,3.472-6.492
					c2.287-4.488,4.475-10.092,4.475-10.092s0.197,1.37,0.875,3.642c0.396,1.341,1.228,2.809,1.892,4.234
					c-0.536,0.734-0.861,1.157-0.861,1.157s0,0.015,0.014,0.028c-0.423,0.565-0.902,1.172-1.396,1.765
					c-1.807,2.146-3.952,4.602-4.234,5.307c-0.339,0.833-0.254,1.453,0.396,1.934c0.479,0.367,1.326,0.424,2.215,0.354
					c1.624-0.114,2.767-0.509,3.317-0.763c0.875-0.311,1.891-0.805,2.851-1.496c1.765-1.298,2.837-3.161,2.738-5.617
					c-0.057-1.354-0.494-2.71-1.03-3.979c0.155-0.227,0.324-0.467,0.479-0.706c2.795-4.079,4.954-8.553,4.954-8.553
					s0.198,1.368,0.875,3.641c0.339,1.144,1.003,2.399,1.609,3.627c-2.625,2.132-4.248,4.602-4.813,6.225
					c-1.044,3.006-0.226,4.361,1.313,4.672c0.691,0.142,1.679-0.184,2.413-0.494c0.917-0.311,2.019-0.805,3.049-1.566
					c1.764-1.299,3.472-3.119,3.359-5.59c-0.043-1.114-0.354-2.229-0.763-3.302c2.216-0.932,5.096-1.44,8.765-1.017
					c7.861,0.917,9.399,5.829,9.104,7.875c-0.296,2.062-1.947,3.19-2.498,3.529s-0.72,0.466-0.677,0.72
					c0.07,0.367,0.324,0.353,0.79,0.268c0.649-0.112,4.121-1.665,4.275-5.462C90.571,44.178,85.957,38.899,77.784,38.941
					L77.784,38.941z M17.194,59.364c-2.597,2.837-6.238,3.909-7.805,3.007c-1.68-0.974-1.017-5.152,2.188-8.173
					c1.947-1.834,4.46-3.527,6.125-4.572c0.382-0.226,0.932-0.564,1.609-0.974c0.112-0.07,0.169-0.099,0.169-0.099
					c0.127-0.085,0.269-0.155,0.409-0.24C21.062,52.604,19.933,56.387,17.194,59.364L17.194,59.364z M36.163,46.464
					c-0.903,2.216-2.809,7.862-3.966,7.565c-0.988-0.254-1.595-4.559-0.197-8.793c0.705-2.131,2.201-4.672,3.091-5.659
					c1.425-1.595,2.991-2.104,3.358-1.468C38.943,38.941,36.728,45.081,36.163,46.464L36.163,46.464z M51.829,53.945
					c-0.381,0.197-0.733,0.324-0.903,0.226c-0.127-0.071,0.155-0.339,0.155-0.339s1.962-2.104,2.738-3.063
					c0.451-0.564,0.974-1.228,1.538-1.961c0,0.069,0.014,0.141,0.014,0.225C55.357,51.56,52.931,53.268,51.829,53.945z
					 M63.911,51.192c-0.282-0.197-0.24-0.86,0.705-2.922c0.367-0.804,1.214-2.159,2.682-3.458c0.17,0.537,0.269,1.045,0.269,1.524
					C67.552,49.513,65.279,50.698,63.911,51.192L63.911,51.192z"/>
			</g>
		</g>
	</g>
</g>
</svg>
