<?xml version="1.0" encoding="utf-8"?>
<!-- Generator: Adobe Illustrator 16.0.3, SVG Export Plug-In . SVG Version: 6.00 Build 0)  -->
<!DOCTYPE svg PUBLIC "-//W3C//DTD SVG 1.1//EN" "http://www.w3.org/Graphics/SVG/1.1/DTD/svg11.dtd">
<svg version="1.1" xmlns="http://www.w3.org/2000/svg" xmlns:xlink="http://www.w3.org/1999/xlink" x="0px" y="0px"
	 width="67.752px" height="67.752px" viewBox="0 0 67.752 67.752" enable-background="new 0 0 67.752 67.752" xml:space="preserve">
<g id="Layer_1">
</g>
<g id="Isolation_Mode">
	<path fill="#5F8F97" d="M33.876,0C15.18,0,0,15.18,0,33.876c0,18.699,15.18,33.876,33.876,33.876s33.876-15.177,33.876-33.876
		C67.752,15.18,52.572,0,33.876,0z M28.887,11.027l0.07-0.447l0.109-0.43l0.152-0.415l0.188-0.392l0.228-0.374l0.258-0.345
		l0.291-0.322l0.318-0.291l0.35-0.258l0.368-0.227l0.396-0.19l0.414-0.148l0.43-0.111l0.446-0.067l0.461-0.024l0.462,0.024
		l0.443,0.067l0.435,0.111l0.412,0.148l0.393,0.19l0.374,0.227l0.345,0.258l0.318,0.291l0.291,0.322l0.262,0.345l0.223,0.374
		l0.189,0.392l0.152,0.415l0.113,0.43l0.067,0.447l0.023,0.461l-0.023,0.461l-0.067,0.446l-0.113,0.43l-0.152,0.414l-0.189,0.393
		l-0.223,0.372l-0.262,0.347l-0.291,0.32L36.23,14.96l-0.345,0.261l-0.374,0.228l-0.393,0.188l-0.412,0.15l-0.435,0.111
		l-0.443,0.067l-0.462,0.024l-0.461-0.024l-0.446-0.067l-0.43-0.111l-0.414-0.15l-0.396-0.188l-0.368-0.228l-0.35-0.261
		l-0.318-0.289l-0.291-0.32l-0.258-0.347l-0.228-0.372l-0.188-0.393l-0.152-0.414l-0.109-0.43l-0.07-0.446l-0.021-0.461
		L28.887,11.027z M54.145,19.109l-0.011,0.163l-0.02,0.159l-0.031,0.156l-0.037,0.155l-0.051,0.149l-0.061,0.146l-0.067,0.139
		l-0.078,0.139l-0.085,0.129l-0.095,0.125l-0.103,0.119L53.398,20.8l-0.115,0.105l-0.121,0.099l-0.13,0.087l-0.135,0.081
		l-0.142,0.074l-0.146,0.065l-0.152,0.054l-0.156,0.044l-0.163,0.034l-0.162,0.024l-12.484,1.376v13.749l5.831,21.024l0.026,0.112
		l0.023,0.114l0.021,0.114l0.012,0.116l0.009,0.114l0.002,0.112l-0.002,0.116l-0.009,0.11l-0.012,0.112l-0.018,0.112l-0.021,0.106
		l-0.026,0.109l-0.031,0.105l-0.034,0.105l-0.04,0.105l-0.044,0.101l-0.048,0.099l-0.054,0.099l-0.055,0.094l-0.06,0.092
		l-0.065,0.088l-0.068,0.087l-0.07,0.086l-0.078,0.082l-0.078,0.077l-0.081,0.075l-0.088,0.07l-0.089,0.068l-0.09,0.063
		l-0.101,0.061l-0.097,0.056l-0.103,0.054l-0.104,0.048l-0.109,0.044l-0.111,0.037l-0.112,0.033l-0.115,0.031l-0.115,0.024
		l-0.115,0.016l-0.114,0.014l-0.112,0.007l-0.115,0.004h-0.112l-0.112-0.011l-0.11-0.01l-0.111-0.017l-0.109-0.021l-0.108-0.027
		l-0.107-0.031l-0.105-0.036l-0.103-0.037l-0.101-0.044l-0.1-0.052l-0.098-0.051l-0.095-0.058l-0.091-0.058l-0.092-0.064
		l-0.085-0.066l-0.084-0.076l-0.082-0.073l-0.079-0.079l-0.073-0.083l-0.07-0.086l-0.068-0.091l-0.065-0.092l-0.061-0.095
		l-0.057-0.098l-0.051-0.103l-0.048-0.104l-0.044-0.109L40.37,59.11l-0.034-0.111l-5.535-19.974h-2.815l-5.314,19.163l-0.035,0.116
		L26.6,58.417l-0.044,0.104l-0.048,0.105l-0.051,0.104L26.4,58.829l-0.063,0.095l-0.063,0.092l-0.068,0.092l-0.07,0.085
		l-0.075,0.083l-0.077,0.079l-0.082,0.073L25.816,59.5l-0.084,0.071l-0.092,0.061l-0.091,0.061l-0.095,0.058l-0.099,0.052
		l-0.099,0.051l-0.102,0.044l-0.104,0.036l-0.105,0.037l-0.104,0.031l-0.108,0.024l-0.109,0.023l-0.111,0.017l-0.112,0.01
		l-0.11,0.007l-0.112,0.004l-0.116-0.004l-0.114-0.007l-0.116-0.014l-0.111-0.016l-0.114-0.024l-0.115-0.03l-0.115-0.035
		l-0.108-0.036l-0.109-0.044l-0.104-0.048l-0.103-0.054l-0.102-0.054l-0.096-0.062l-0.091-0.064l-0.092-0.066l-0.084-0.071
		l-0.081-0.076l-0.082-0.077l-0.075-0.082l-0.071-0.083L22.11,59.05l-0.064-0.088l-0.061-0.095l-0.057-0.096l-0.052-0.095
		l-0.047-0.103l-0.045-0.097l-0.04-0.105l-0.033-0.104l-0.031-0.105l-0.026-0.108l-0.024-0.108l-0.018-0.112l-0.01-0.11
		l-0.007-0.112l-0.003-0.116l0.003-0.111l0.007-0.115l0.014-0.116l0.018-0.114l0.022-0.114l0.031-0.112l5.464-19.713V22.771
		l-11.857-1.304l-0.162-0.024l-0.163-0.034l-0.154-0.044l-0.153-0.054l-0.145-0.065l-0.144-0.074l-0.135-0.081l-0.129-0.087
		l-0.122-0.099L13.873,20.8l-0.109-0.111l-0.102-0.119l-0.095-0.125l-0.086-0.129l-0.076-0.139l-0.067-0.139l-0.063-0.146
		l-0.047-0.149l-0.04-0.155l-0.031-0.156l-0.021-0.159l-0.01-0.163v-0.166l0.014-0.165l0.023-0.167l0.035-0.158l0.043-0.157
		l0.058-0.152l0.062-0.146l0.073-0.143l0.082-0.136l0.088-0.128l0.099-0.122l0.104-0.115l0.112-0.112l0.117-0.098l0.127-0.095
		l0.133-0.085l0.134-0.078l0.14-0.067l0.146-0.061l0.149-0.051l0.155-0.041l0.156-0.031l0.159-0.02l0.162-0.007h0.166l0.167,0.014
		l12.713,1.399h10.183l12.715-1.399l0.166-0.014h0.165l0.163,0.007l0.159,0.02l0.155,0.031l0.156,0.041l0.148,0.051l0.146,0.061
		l0.143,0.067l0.135,0.078l0.129,0.085l0.126,0.095l0.118,0.098l0.112,0.112l0.104,0.115l0.099,0.122l0.089,0.128l0.081,0.136
		l0.074,0.143l0.064,0.146l0.055,0.152l0.044,0.157l0.034,0.158l0.022,0.167l0.015,0.165V19.109z"/>
</g>
</svg>
